<?xml version="1.0" standalone="no"?>
<!DOCTYPE svg PUBLIC "-//W3C//DTD SVG 20010904//EN"
 "http://www.w3.org/TR/2001/REC-SVG-20010904/DTD/svg10.dtd">
<svg version="1.0" xmlns="http://www.w3.org/2000/svg"
 width="1477.000000pt" height="1057.000000pt" viewBox="0 0 1477.000000 1057.000000"
 preserveAspectRatio="xMidYMid meet">

<g transform="translate(0.000000,1057.000000) scale(0.100000,-0.100000)"
fill="#000000" stroke="none">
<path d="M2420 9963 c-40 -2 -71 -10 -82 -20 -13 -11 -49 -18 -130 -23 -96 -6
-129 -13 -213 -45 -169 -64 -255 -116 -255 -156 0 -18 22 -83 43 -127 21 -45
-30 -207 -163 -507 -76 -174 -330 -781 -457 -1095 -52 -129 -124 -307 -160
-395 -221 -540 -492 -1248 -547 -1425 -19 -63 -56 -157 -81 -209 -53 -109 -66
-189 -45 -268 41 -150 165 -296 236 -279 49 13 113 126 223 394 73 176 102
255 254 682 234 655 241 671 296 708 45 29 105 47 286 82 83 16 193 39 245 50
152 32 237 42 370 42 300 1 524 -99 713 -317 109 -126 127 -176 127 -360 0
-283 -86 -552 -241 -758 -61 -81 -248 -269 -340 -343 -142 -113 -322 -216
-481 -275 -146 -53 -255 -72 -428 -73 -144 -1 -161 1 -235 27 -109 37 -165 72
-265 162 -95 87 -156 131 -200 146 -25 9 -36 7 -64 -11 -49 -29 -84 -74 -96
-121 -24 -88 69 -207 275 -353 172 -122 231 -154 341 -183 90 -24 117 -26 299
-27 203 -1 249 4 420 45 247 60 530 211 797 427 88 71 199 222 353 482 37 63
84 140 105 170 48 72 100 200 144 352 81 283 73 468 -30 693 -65 144 -195 302
-320 391 -108 77 -239 139 -466 218 -60 21 -108 42 -108 46 0 4 26 23 58 43
65 40 166 123 334 273 313 280 662 759 722 991 29 110 15 253 -37 395 -99 272
-348 454 -724 529 -109 21 -327 32 -473 22z m580 -409 c101 -21 146 -42 200
-95 93 -91 95 -205 5 -394 -71 -149 -267 -454 -394 -615 -265 -334 -428 -503
-579 -604 -126 -84 -184 -104 -442 -155 -326 -64 -300 -61 -300 -38 0 71 137
422 368 942 88 198 163 371 167 385 16 53 75 163 106 198 40 45 67 106 75 169
12 84 34 114 119 157 139 69 460 93 675 50z"/>
<path d="M10082 9542 c-14 -2 -33 -20 -49 -45 -14 -23 -58 -91 -99 -152 -90
-136 -116 -194 -209 -464 -127 -374 -123 -363 -387 -971 -47 -107 -124 -312
-173 -455 -171 -510 -267 -781 -294 -830 -48 -86 -89 -208 -116 -337 -13 -68
-34 -151 -45 -183 -52 -150 -84 -306 -81 -389 2 -77 67 -152 173 -201 29 -14
63 -25 76 -25 30 0 79 49 87 86 5 28 16 62 57 174 11 30 49 168 83 306 71 282
152 510 170 479 5 -10 24 -33 41 -49 17 -17 87 -109 155 -205 156 -219 367
-483 465 -583 116 -117 289 -228 406 -259 40 -11 58 -10 120 4 94 22 135 48
155 94 29 70 0 133 -78 173 -74 38 -237 169 -312 251 -49 54 -159 206 -307
426 l-229 341 91 79 c201 172 258 217 368 291 63 42 146 103 183 134 38 31
130 99 204 150 190 130 274 204 307 269 24 49 26 60 20 134 -4 44 -12 94 -19
111 -24 58 -108 104 -189 104 -38 0 -51 -8 -136 -81 -168 -143 -501 -397 -664
-507 -116 -78 -192 -138 -280 -222 -66 -63 -117 -108 -114 -100 3 8 31 78 61
155 30 77 60 158 67 180 34 107 142 381 225 570 51 116 96 221 100 235 4 14
40 95 80 180 40 85 96 223 125 305 28 83 61 166 74 185 21 33 46 73 124 202
45 75 54 119 41 189 -13 66 -66 170 -94 184 -11 5 -34 20 -51 32 -34 24 -96
41 -132 35z"/>
<path d="M7088 8090 c-71 -13 -97 -41 -185 -207 -138 -259 -421 -976 -477
-1208 -73 -307 -140 -642 -157 -788 -16 -143 -8 -168 76 -249 81 -77 142 -118
178 -118 60 0 177 150 210 270 9 30 28 111 42 180 52 239 102 344 281 586 140
190 375 381 699 571 319 186 449 238 679 272 139 20 186 37 186 67 0 9 -23 37
-50 62 -33 30 -54 58 -60 83 -20 72 -107 121 -240 135 -73 8 -201 -18 -301
-62 -44 -19 -116 -50 -161 -70 -102 -43 -129 -60 -243 -143 -254 -186 -506
-407 -555 -487 -22 -35 -66 -62 -80 -48 -11 11 34 124 157 399 140 311 223
529 223 587 0 47 -25 92 -70 128 -46 36 -95 49 -152 40z"/>
<path d="M12405 8055 c-227 -37 -414 -160 -616 -405 -233 -283 -477 -790 -555
-1155 -73 -343 -52 -594 68 -804 40 -69 166 -198 231 -236 27 -15 85 -41 130
-56 140 -49 343 -38 508 27 71 27 140 66 159 88 7 10 29 16 54 16 44 0 107 35
125 68 5 10 45 36 88 57 60 29 96 56 155 116 42 44 92 100 110 126 59 86 41
155 -54 204 -68 35 -104 27 -249 -57 -72 -42 -186 -113 -254 -158 -200 -135
-258 -156 -444 -157 -126 -1 -173 11 -219 54 -99 92 -118 354 -46 627 28 103
108 347 118 357 3 4 41 -30 84 -74 88 -92 143 -124 264 -153 139 -33 309 -20
411 31 255 130 464 381 578 694 32 87 33 95 33 245 l1 155 -38 78 c-72 147
-203 247 -389 296 -103 27 -161 31 -253 16z m280 -356 c65 -65 53 -242 -28
-413 -119 -251 -269 -391 -440 -411 -48 -5 -65 -3 -103 15 -51 25 -90 77 -99
130 -14 82 -13 80 -53 80 -20 0 -52 -4 -69 -9 -18 -5 -35 -6 -38 -2 -8 14 92
165 168 251 140 161 313 306 417 352 104 45 205 48 245 7z"/>
<path d="M5120 8002 c-94 -38 -226 -105 -304 -157 -293 -192 -588 -583 -700
-927 -80 -243 -89 -651 -20 -887 61 -211 205 -387 389 -477 194 -94 426 -100
592 -16 89 46 291 201 383 293 141 143 206 266 145 278 -11 2 -36 16 -56 32
-82 65 -101 59 -233 -69 -48 -46 -114 -99 -149 -118 -207 -115 -240 -124 -379
-105 -225 33 -313 94 -353 248 -21 81 -19 263 5 402 50 294 96 333 281 243
118 -57 201 -76 314 -68 126 7 257 40 334 82 259 142 516 430 577 644 18 66
-6 191 -57 291 -42 84 -184 227 -259 261 -72 33 -197 55 -345 62 -100 5 -127
3 -165 -12z m305 -364 c80 -31 135 -100 135 -171 0 -116 -173 -305 -353 -387
-158 -72 -482 -58 -531 23 -9 13 -5 27 14 61 44 78 172 226 270 313 174 154
335 210 465 161z"/>
<path d="M5344 5625 c-95 -22 -164 -57 -317 -161 -570 -390 -712 -542 -1223
-1309 -239 -358 -250 -379 -489 -945 -141 -333 -219 -631 -256 -980 -19 -180
-17 -640 4 -782 45 -305 126 -489 287 -649 93 -94 172 -139 335 -195 138 -47
326 -36 535 32 190 62 436 180 599 287 53 35 130 80 171 100 41 21 107 62 145
92 92 73 129 100 216 160 103 71 191 161 221 226 53 112 43 192 -20 168 -14
-6 -57 -17 -94 -24 -101 -22 -200 -76 -313 -171 -131 -109 -278 -185 -645
-329 -338 -133 -521 -185 -654 -185 -67 0 -142 27 -176 63 -71 74 -127 235
-157 452 -22 150 -24 578 -4 735 24 191 70 420 95 469 34 65 58 153 58 208 0
76 156 449 280 667 117 206 424 648 635 913 202 254 498 538 678 651 88 55
228 115 278 120 42 4 52 1 77 -23 50 -48 56 -149 20 -317 -5 -24 -18 -92 -30
-153 -12 -60 -38 -148 -57 -195 -75 -184 -292 -554 -328 -562 -13 -2 -8 -18
24 -83 41 -83 76 -116 170 -165 34 -18 45 -20 79 -10 111 29 256 188 384 420
85 153 171 418 203 626 44 278 -20 527 -176 686 -72 73 -163 124 -274 153 -87
22 -209 27 -281 10z"/>
<path d="M13284 5058 c-25 -40 -67 -104 -93 -143 -82 -119 -98 -157 -226 -530
-90 -259 -161 -437 -335 -830 -60 -138 -133 -324 -179 -465 -148 -442 -289
-835 -329 -912 -37 -73 -63 -157 -126 -408 -14 -58 -37 -143 -51 -190 -41
-135 -59 -258 -45 -308 21 -80 136 -176 224 -188 41 -6 48 -4 75 23 17 18 32
46 36 69 4 21 20 69 35 105 16 37 53 167 84 290 72 287 79 311 134 452 l45
117 18 -30 c10 -16 22 -30 27 -30 5 0 33 -35 62 -77 107 -153 379 -510 474
-621 174 -203 414 -362 545 -362 20 0 69 10 110 22 63 19 78 27 103 62 24 33
29 48 25 79 -8 56 -29 81 -105 126 -115 67 -232 162 -304 246 -60 70 -239 325
-462 660 l-67 99 48 41 c26 22 88 75 137 118 109 96 217 179 318 243 42 27
118 83 170 125 51 42 141 108 199 147 138 92 229 170 268 228 28 43 31 55 31
126 0 149 -27 196 -129 233 -84 29 -114 21 -198 -56 -134 -121 -495 -397 -703
-537 -90 -60 -176 -130 -256 -205 l-119 -114 61 156 c33 86 87 230 119 321 32
91 105 273 162 405 58 132 115 267 128 300 12 33 43 102 69 153 54 107 89 194
140 346 28 82 58 144 123 249 47 77 91 158 98 180 16 53 3 131 -35 211 -24 50
-40 69 -80 95 -56 36 -99 51 -147 51 -30 0 -37 -7 -79 -72z"/>
<path d="M11570 4654 c-63 -27 -136 -137 -158 -239 -22 -104 -23 -174 -3 -220
23 -51 171 -203 221 -226 120 -55 149 -60 199 -35 70 36 133 156 132 249 0 26
-7 73 -16 103 -24 82 -111 293 -130 314 -38 42 -193 76 -245 54z"/>
<path d="M7315 3591 c-218 -77 -435 -223 -596 -403 -246 -273 -398 -546 -455
-812 -42 -199 -39 -539 6 -721 69 -273 249 -473 505 -560 138 -48 361 -34 486
31 131 66 396 287 479 399 71 96 94 165 55 165 -7 0 -37 18 -66 40 -31 23 -65
40 -80 40 -27 0 -70 -33 -186 -143 -34 -33 -72 -65 -85 -72 -229 -122 -235
-125 -305 -125 -68 0 -175 17 -267 40 -70 19 -146 94 -176 175 -42 113 -37
321 12 540 34 148 61 184 137 185 30 0 64 -10 110 -34 141 -71 245 -90 390
-70 179 23 234 44 386 148 176 119 364 336 440 506 24 52 29 78 29 130 -2 136
-52 243 -171 370 -121 128 -232 169 -498 184 -80 4 -110 1 -150 -13z m331
-386 c67 -42 94 -85 94 -148 0 -77 -31 -130 -139 -237 -69 -69 -116 -106 -168
-133 -120 -63 -286 -82 -449 -54 -161 29 -163 72 -9 257 117 140 243 249 352
304 72 36 116 45 199 43 59 -2 79 -7 120 -32z"/>
<path d="M8614 3370 c-84 -37 -133 -137 -120 -243 4 -29 27 -123 52 -209 24
-87 69 -276 98 -420 118 -573 245 -995 332 -1097 39 -47 104 -74 155 -66 79
14 215 121 374 296 33 36 101 102 151 146 93 80 143 139 290 338 236 319 280
387 374 575 29 57 80 145 113 195 125 185 140 288 46 315 -57 17 -109 12 -154
-15 -73 -42 -147 -134 -602 -745 -284 -382 -427 -550 -467 -550 -30 0 -63 25
-91 71 -33 51 -98 306 -125 489 -77 520 -159 818 -250 909 -28 27 -38 31 -83
30 -29 0 -70 -9 -93 -19z"/>
<path d="M11151 3151 c-32 -32 -126 -356 -267 -916 -53 -213 -70 -297 -89
-463 -21 -185 -22 -209 -9 -260 19 -79 110 -257 146 -287 39 -33 96 -49 129
-37 23 9 28 20 43 99 27 149 36 215 36 288 1 156 37 339 154 769 150 550 158
645 63 745 -37 39 -120 81 -159 81 -16 0 -37 -9 -47 -19z"/>
</g>
</svg>
